<svg xmlns="http://www.w3.org/2000/svg" xmlns:xlink="http://www.w3.org/1999/xlink" width="100" zoomAndPan="magnify" viewBox="0 0 75 74.999997" height="100" preserveAspectRatio="xMidYMid meet" version="1.0"><defs><clipPath id="effc85211b"><path d="M 0.0859375 0.875 L 67 0.875 L 67 59.355469 L 0.0859375 59.355469 Z M 0.0859375 0.875 " clip-rule="nonzero"/></clipPath><clipPath id="15de6d9003"><path d="M 33.5 0.875 L 66.914062 59.355469 L 0.0859375 59.355469 Z M 33.5 0.875 " clip-rule="nonzero"/></clipPath><clipPath id="0adede34ae"><path d="M 0.0859375 0.875 L 67 0.875 L 67 59.355469 L 0.0859375 59.355469 Z M 0.0859375 0.875 " clip-rule="nonzero"/></clipPath><clipPath id="2300f3938f"><path d="M 33.5 0.875 L 66.914062 59.355469 L 0.0859375 59.355469 Z M 33.5 0.875 " clip-rule="nonzero"/></clipPath><clipPath id="064622209f"><rect x="0" width="67" y="0" height="60"/></clipPath><clipPath id="8f17a30d84"><path d="M 0.0859375 30.117188 L 67 30.117188 L 67 71 L 0.0859375 71 Z M 0.0859375 30.117188 " clip-rule="nonzero"/></clipPath><clipPath id="b2e8409710"><path d="M 33.5 30.117188 L 66.914062 88.59375 L 0.0859375 88.59375 Z M 33.5 30.117188 " clip-rule="nonzero"/></clipPath><clipPath id="91ade33c19"><path d="M 0.0859375 0.117188 L 67 0.117188 L 67 41 L 0.0859375 41 Z M 0.0859375 0.117188 " clip-rule="nonzero"/></clipPath><clipPath id="665319a7be"><path d="M 33.5 0.117188 L 66.914062 58.59375 L 0.0859375 58.59375 Z M 33.5 0.117188 " clip-rule="nonzero"/></clipPath><clipPath id="f10f188017"><rect x="0" width="67" y="0" height="41"/></clipPath><clipPath id="b25f45458f"><path d="M 21 12 L 35 12 L 35 32 L 21 32 Z M 21 12 " clip-rule="nonzero"/></clipPath><clipPath id="8c9d2f0d54"><path d="M 21.960938 13.515625 L 23.324219 12.722656 L 34.042969 31.125 L 32.679688 31.921875 Z M 21.960938 13.515625 " clip-rule="nonzero"/></clipPath><clipPath id="aa197eba17"><path d="M 0.921875 0.558594 L 13.160156 0.558594 L 13.160156 20 L 0.921875 20 Z M 0.921875 0.558594 " clip-rule="nonzero"/></clipPath><clipPath id="0e6e6a399e"><path d="M 0.960938 1.515625 L 2.324219 0.722656 L 13.042969 19.125 L 11.679688 19.921875 Z M 0.960938 1.515625 " clip-rule="nonzero"/></clipPath><clipPath id="df0464a05f"><rect x="0" width="14" y="0" height="20"/></clipPath><clipPath id="14e199c453"><path d="M 5 7 L 34 7 L 34 33 L 5 33 Z M 5 7 " clip-rule="nonzero"/></clipPath><clipPath id="97fab56788"><path d="M 40.542969 20.320312 L 26.40625 44.769531 L 5.042969 32.417969 L 19.183594 7.964844 Z M 40.542969 20.320312 " clip-rule="nonzero"/></clipPath><clipPath id="c817c859f0"><path d="M 33.484375 32.527344 L 5.066406 32.382812 L 19.183594 7.964844 Z M 33.484375 32.527344 " clip-rule="nonzero"/></clipPath><clipPath id="d89c531fab"><path d="M 0 0.761719 L 28.679688 0.761719 L 28.679688 25.71875 L 0 25.71875 Z M 0 0.761719 " clip-rule="nonzero"/></clipPath><clipPath id="9d598f8cd4"><path d="M 35.542969 13.320312 L 21.40625 37.769531 L 0.0429688 25.417969 L 14.183594 0.964844 Z M 35.542969 13.320312 " clip-rule="nonzero"/></clipPath><clipPath id="dc64fd7f6d"><path d="M 28.484375 25.527344 L 0.0664062 25.382812 L 14.183594 0.964844 Z M 28.484375 25.527344 " clip-rule="nonzero"/></clipPath><clipPath id="ea8695f561"><rect x="0" width="29" y="0" height="26"/></clipPath><clipPath id="7866803057"><rect x="0" width="68" y="0" height="71"/></clipPath></defs><g transform="matrix(1, 0, 0, 1, 4, 4)"><g clip-path="url(#7866803057)"><g clip-path="url(#effc85211b)"><g clip-path="url(#15de6d9003)"><g transform="matrix(1, 0, 0, 1, 0, -0.000000000000001776)"><g clip-path="url(#064622209f)"><g clip-path="url(#0adede34ae)"><g clip-path="url(#2300f3938f)"><path fill="#7c8f6d" d="M 0.0859375 0.875 L 67.011719 0.875 L 67.011719 59.355469 L 0.0859375 59.355469 Z M 0.0859375 0.875 " fill-opacity="1" fill-rule="nonzero"/></g></g></g></g></g></g><g clip-path="url(#8f17a30d84)"><g clip-path="url(#b2e8409710)"><g transform="matrix(1, 0, 0, 1, 0, 30)"><g clip-path="url(#f10f188017)"><g clip-path="url(#91ade33c19)"><g clip-path="url(#665319a7be)"><path fill="#ffffff" d="M 0.0859375 0.117188 L 67.011719 0.117188 L 67.011719 58.59375 L 0.0859375 58.59375 Z M 0.0859375 0.117188 " fill-opacity="1" fill-rule="nonzero"/></g></g></g></g></g></g><g clip-path="url(#b25f45458f)"><g clip-path="url(#8c9d2f0d54)"><g transform="matrix(1, 0, 0, 1, 21, 12)"><g clip-path="url(#df0464a05f)"><g clip-path="url(#aa197eba17)"><g clip-path="url(#0e6e6a399e)"><path fill="#ffffff" d="M 0.960938 1.515625 L 2.324219 0.722656 L 13.042969 19.125 L 11.675781 19.921875 Z M 0.960938 1.515625 " fill-opacity="1" fill-rule="nonzero"/></g></g></g></g></g></g><g clip-path="url(#14e199c453)"><g clip-path="url(#97fab56788)"><g clip-path="url(#c817c859f0)"><g transform="matrix(1, 0, 0, 1, 5, 7)"><g clip-path="url(#ea8695f561)"><g clip-path="url(#d89c531fab)"><g clip-path="url(#9d598f8cd4)"><g clip-path="url(#dc64fd7f6d)"><path fill="#ffffff" d="M 35.542969 13.320312 L 21.40625 37.769531 L 0.0429688 25.417969 L 14.183594 0.964844 Z M 35.542969 13.320312 " fill-opacity="1" fill-rule="nonzero"/></g></g></g></g></g></g></g></g></g></g></svg>