<svg xmlns="http://www.w3.org/2000/svg" xmlns:xlink="http://www.w3.org/1999/xlink" width="40" zoomAndPan="magnify" viewBox="0 0 30 30.000001" height="40" preserveAspectRatio="xMidYMid meet" version="1.0"><defs><g/><clipPath id="c64c1e0ce9"><path d="M 0.484375 0 L 29.515625 0 L 29.515625 29.03125 L 0.484375 29.03125 Z M 0.484375 0 " clip-rule="nonzero"/></clipPath><clipPath id="74fd9dd1a9"><path d="M 0.539062 0.0546875 L 29.460938 0.0546875 L 29.460938 28.976562 L 0.539062 28.976562 Z M 0.539062 0.0546875 " clip-rule="nonzero"/></clipPath><clipPath id="ab41743b0d"><path d="M 15 0.0546875 C 7.011719 0.0546875 0.539062 6.527344 0.539062 14.515625 C 0.539062 22.503906 7.011719 28.976562 15 28.976562 C 22.988281 28.976562 29.460938 22.503906 29.460938 14.515625 C 29.460938 6.527344 22.988281 0.0546875 15 0.0546875 Z M 15 0.0546875 " clip-rule="nonzero"/></clipPath><clipPath id="1a25b34774"><path d="M 0.539062 0.0546875 L 29.460938 0.0546875 L 29.460938 28.976562 L 0.539062 28.976562 Z M 0.539062 0.0546875 " clip-rule="nonzero"/></clipPath><clipPath id="225b9ee900"><path d="M 15 0.0546875 C 7.011719 0.0546875 0.539062 6.527344 0.539062 14.515625 C 0.539062 22.503906 7.011719 28.976562 15 28.976562 C 22.988281 28.976562 29.460938 22.503906 29.460938 14.515625 C 29.460938 6.527344 22.988281 0.0546875 15 0.0546875 Z M 15 0.0546875 " clip-rule="nonzero"/></clipPath><clipPath id="b9555fa242"><rect x="0" width="30" y="0" height="29"/></clipPath><clipPath id="e024345657"><rect x="0" width="22" y="0" height="28"/></clipPath></defs><g clip-path="url(#c64c1e0ce9)"><path fill="#ffffff" d="M 0.484375 0 L 29.515625 0 L 29.515625 29.03125 L 0.484375 29.03125 Z M 0.484375 0 " fill-opacity="1" fill-rule="nonzero"/><path fill="#ffffff" d="M 0.484375 0 L 29.515625 0 L 29.515625 29.03125 L 0.484375 29.03125 Z M 0.484375 0 " fill-opacity="1" fill-rule="nonzero"/></g><g clip-path="url(#74fd9dd1a9)"><g clip-path="url(#ab41743b0d)"><g transform="matrix(1, 0, 0, 1, 0, 0.000000000000005692)"><g clip-path="url(#b9555fa242)"><g clip-path="url(#1a25b34774)"><g clip-path="url(#225b9ee900)"><path fill="#8baa9a" d="M 0.539062 0.0546875 L 29.460938 0.0546875 L 29.460938 28.976562 L 0.539062 28.976562 Z M 0.539062 0.0546875 " fill-opacity="1" fill-rule="nonzero"/></g></g></g></g></g></g><g transform="matrix(1, 0, 0, 1, 5, 0.000000000000005692)"><g clip-path="url(#e024345657)"><g fill="#2c2c2c" fill-opacity="1"><g transform="translate(0.770465, 21.787511)"><g><path d="M 7.25 -14.125 C 8.382812 -14.125 9.367188 -13.945312 10.203125 -13.59375 C 11.046875 -13.25 11.695312 -12.71875 12.15625 -12 C 12.613281 -11.289062 12.84375 -10.410156 12.84375 -9.359375 L 12.84375 0 L 9.359375 0 L 9.359375 -1.4375 C 8.523438 -0.769531 7.742188 -0.3125 7.015625 -0.0625 C 6.296875 0.175781 5.613281 0.296875 4.96875 0.296875 C 4.09375 0.296875 3.332031 0.144531 2.6875 -0.15625 C 2.050781 -0.46875 1.554688 -0.910156 1.203125 -1.484375 C 0.847656 -2.066406 0.671875 -2.769531 0.671875 -3.59375 C 0.671875 -4.257812 0.789062 -4.847656 1.03125 -5.359375 C 1.28125 -5.867188 1.625 -6.3125 2.0625 -6.6875 C 2.5 -7.0625 3.015625 -7.382812 3.609375 -7.65625 C 4.203125 -7.9375 4.847656 -8.171875 5.546875 -8.359375 L 9.359375 -9.453125 C 9.328125 -10.003906 9.113281 -10.425781 8.71875 -10.71875 C 8.332031 -11.019531 7.800781 -11.171875 7.125 -11.171875 C 6.601562 -11.171875 6.066406 -11.085938 5.515625 -10.921875 C 4.972656 -10.753906 4.453125 -10.53125 3.953125 -10.25 C 3.453125 -9.96875 3.007812 -9.644531 2.625 -9.28125 L 0.921875 -11.90625 C 1.878906 -12.6875 2.898438 -13.25 3.984375 -13.59375 C 5.066406 -13.945312 6.15625 -14.125 7.25 -14.125 Z M 6.125 -2.5 C 6.664062 -2.5 7.207031 -2.640625 7.75 -2.921875 C 8.289062 -3.203125 8.828125 -3.570312 9.359375 -4.03125 L 9.359375 -6.609375 L 6.5 -5.6875 C 5.851562 -5.488281 5.375 -5.253906 5.0625 -4.984375 C 4.75 -4.722656 4.59375 -4.359375 4.59375 -3.890625 C 4.59375 -3.460938 4.726562 -3.125 5 -2.875 C 5.269531 -2.625 5.644531 -2.5 6.125 -2.5 Z M 6.125 -2.5 "/></g></g></g><g fill="#2c2c2c" fill-opacity="1"><g transform="translate(13.403414, 21.787511)"><g><path d="M 2.421875 0 L 2.421875 -4.28125 L 6.671875 -4.28125 L 6.671875 0 Z M 2.421875 0 "/></g></g></g></g></g></svg>