<svg xmlns="http://www.w3.org/2000/svg" xmlns:xlink="http://www.w3.org/1999/xlink" width="40" zoomAndPan="magnify" viewBox="0 0 30 30.000001" height="40" preserveAspectRatio="xMidYMid meet" version="1.0"><defs><g/><clipPath id="53b3d48ad8"><path d="M 0.484375 0 L 29.515625 0 L 29.515625 29.03125 L 0.484375 29.03125 Z M 0.484375 0 " clip-rule="nonzero"/></clipPath><clipPath id="a7c7c2d8eb"><path d="M 0.804688 0.199219 L 12 0.199219 L 12 14.832031 L 0.804688 14.832031 Z M 0.804688 0.199219 " clip-rule="nonzero"/></clipPath><clipPath id="1b897511ba"><rect x="0" width="12" y="0" height="15"/></clipPath><clipPath id="601eab1dc6"><path d="M 14 0.199219 L 24 0.199219 L 24 14.832031 L 14 14.832031 Z M 14 0.199219 " clip-rule="nonzero"/></clipPath><clipPath id="38a10ffc95"><path d="M 1 5 L 9.566406 5 L 9.566406 11 L 1 11 Z M 1 5 " clip-rule="nonzero"/></clipPath><clipPath id="f70dfb5da2"><rect x="0" width="10" y="0" height="15"/></clipPath><clipPath id="64db7851e4"><path d="M 7.050781 8.449219 L 8.550781 8.449219 L 8.550781 11.121094 L 7.050781 11.121094 Z M 7.050781 8.449219 " clip-rule="nonzero"/></clipPath><clipPath id="7260bf1ea7"><path d="M 0.0507812 0.449219 L 1.550781 0.449219 L 1.550781 3.121094 L 0.0507812 3.121094 Z M 0.0507812 0.449219 " clip-rule="nonzero"/></clipPath><clipPath id="b2602ba54e"><rect x="0" width="2" y="0" height="4"/></clipPath><clipPath id="0c2677eb34"><path d="M 21.199219 5.238281 L 23.554688 5.238281 L 23.554688 7.910156 L 21.199219 7.910156 Z M 21.199219 5.238281 " clip-rule="nonzero"/></clipPath><clipPath id="527b853541"><path d="M 0.199219 0.238281 L 2.554688 0.238281 L 2.554688 2.910156 L 0.199219 2.910156 Z M 0.199219 0.238281 " clip-rule="nonzero"/></clipPath><clipPath id="c0ac77dc1b"><rect x="0" width="3" y="0" height="3"/></clipPath><clipPath id="64a84a3dda"><path d="M 7.914062 8.449219 L 9.625 8.449219 L 9.625 10.898438 L 7.914062 10.898438 Z M 7.914062 8.449219 " clip-rule="nonzero"/></clipPath><clipPath id="8f90335547"><path d="M 8.550781 8.449219 L 9.625 8.449219 L 8.988281 10.894531 L 7.914062 10.894531 Z M 8.550781 8.449219 " clip-rule="nonzero"/></clipPath><clipPath id="d9e4bb2daf"><path d="M 0.914062 0.449219 L 2.625 0.449219 L 2.625 2.898438 L 0.914062 2.898438 Z M 0.914062 0.449219 " clip-rule="nonzero"/></clipPath><clipPath id="91930c5bc7"><path d="M 1.550781 0.449219 L 2.625 0.449219 L 1.988281 2.894531 L 0.914062 2.894531 Z M 1.550781 0.449219 " clip-rule="nonzero"/></clipPath><clipPath id="84946b904c"><rect x="0" width="3" y="0" height="3"/></clipPath><clipPath id="ee32b743df"><path d="M 22.734375 5.464844 L 24.613281 5.464844 L 24.613281 7.914062 L 22.734375 7.914062 Z M 22.734375 5.464844 " clip-rule="nonzero"/></clipPath><clipPath id="d173ac9bdc"><path d="M 23.367188 5.464844 L 24.613281 5.464844 L 23.980469 7.910156 L 22.734375 7.910156 Z M 23.367188 5.464844 " clip-rule="nonzero"/></clipPath><clipPath id="14b72eeb29"><path d="M 0.734375 0.464844 L 2.613281 0.464844 L 2.613281 2.914062 L 0.734375 2.914062 Z M 0.734375 0.464844 " clip-rule="nonzero"/></clipPath><clipPath id="ec17434f17"><path d="M 1.367188 0.464844 L 2.613281 0.464844 L 1.980469 2.910156 L 0.734375 2.910156 Z M 1.367188 0.464844 " clip-rule="nonzero"/></clipPath><clipPath id="aa1af3e587"><rect x="0" width="3" y="0" height="3"/></clipPath><clipPath id="22697f61b2"><path d="M 7 0.199219 L 18 0.199219 L 18 14.832031 L 7 14.832031 Z M 7 0.199219 " clip-rule="nonzero"/></clipPath><clipPath id="2355029154"><rect x="0" width="11" y="0" height="15"/></clipPath><clipPath id="7f9efa97b7"><rect x="0" width="25" y="0" height="15"/></clipPath></defs><g clip-path="url(#53b3d48ad8)"><path fill="#ffffff" d="M 0.484375 0 L 29.515625 0 L 29.515625 29.03125 L 0.484375 29.03125 Z M 0.484375 0 " fill-opacity="1" fill-rule="nonzero"/><path fill="#1e1c1c" d="M 0.484375 0 L 29.515625 0 L 29.515625 29.03125 L 0.484375 29.03125 Z M 0.484375 0 " fill-opacity="1" fill-rule="nonzero"/></g><g transform="matrix(1, 0, 0, 1, 2, 7)"><g clip-path="url(#7f9efa97b7)"><g clip-path="url(#a7c7c2d8eb)"><g transform="matrix(1, 0, 0, 1, 0, 0.000000000000005329)"><g clip-path="url(#1b897511ba)"><g fill="#ffffff" fill-opacity="1"><g transform="translate(0.932762, 10.617745)"><g><path d="M 2.8125 0.125 C 2.332031 0.125 1.90625 0.0195312 1.53125 -0.1875 C 1.164062 -0.40625 0.878906 -0.707031 0.671875 -1.09375 C 0.460938 -1.476562 0.359375 -1.914062 0.359375 -2.40625 C 0.359375 -2.90625 0.460938 -3.34375 0.671875 -3.71875 C 0.878906 -4.101562 1.164062 -4.398438 1.53125 -4.609375 C 1.90625 -4.828125 2.332031 -4.9375 2.8125 -4.9375 C 3.101562 -4.9375 3.378906 -4.890625 3.640625 -4.796875 C 3.898438 -4.710938 4.132812 -4.59375 4.34375 -4.4375 L 4.34375 -6.78125 L 5.734375 -6.78125 L 5.734375 0 L 4.703125 0 L 4.53125 -0.546875 C 4.3125 -0.335938 4.054688 -0.171875 3.765625 -0.046875 C 3.472656 0.0664062 3.15625 0.125 2.8125 0.125 Z M 1.734375 -2.40625 C 1.734375 -2.019531 1.851562 -1.703125 2.09375 -1.453125 C 2.34375 -1.203125 2.664062 -1.078125 3.0625 -1.078125 C 3.457031 -1.078125 3.773438 -1.203125 4.015625 -1.453125 C 4.265625 -1.703125 4.390625 -2.019531 4.390625 -2.40625 C 4.390625 -2.800781 4.265625 -3.125 4.015625 -3.375 C 3.773438 -3.625 3.457031 -3.75 3.0625 -3.75 C 2.664062 -3.75 2.34375 -3.625 2.09375 -3.375 C 1.851562 -3.125 1.734375 -2.800781 1.734375 -2.40625 Z M 1.734375 -2.40625 "/></g></g></g><g fill="#ffffff" fill-opacity="1"><g transform="translate(6.457261, 10.617745)"><g><path d="M 0.703125 0 L 0.703125 -4.8125 L 1.734375 -4.8125 L 1.921875 -4.171875 C 2.078125 -4.398438 2.269531 -4.5625 2.5 -4.65625 C 2.738281 -4.757812 3.035156 -4.8125 3.390625 -4.8125 L 3.90625 -4.8125 L 3.90625 -3.546875 L 3.375 -3.546875 C 2.976562 -3.546875 2.664062 -3.4375 2.4375 -3.21875 C 2.207031 -3.007812 2.09375 -2.644531 2.09375 -2.125 L 2.09375 0 Z M 0.703125 0 "/></g></g></g><g fill="#ffffff" fill-opacity="1"><g transform="translate(9.770183, 10.617745)"><g/></g></g></g></g></g><g clip-path="url(#601eab1dc6)"><g transform="matrix(1, 0, 0, 1, 14, 0.000000000000005329)"><g clip-path="url(#f70dfb5da2)"><g clip-path="url(#38a10ffc95)"><g fill="#ffffff" fill-opacity="1"><g transform="translate(1.054574, 10.617745)"><g><path d="M 1.859375 0 L 0.078125 -4.8125 L 1.5625 -4.8125 L 2.125 -3.21875 L 2.59375 -1.875 L 3.09375 -3.21875 L 3.6875 -4.8125 L 4.8125 -4.8125 L 5.40625 -3.21875 L 5.90625 -1.859375 L 6.390625 -3.21875 L 6.953125 -4.8125 L 8.421875 -4.8125 L 6.640625 0 L 5.34375 0 L 4.25 -2.9375 L 3.15625 0 Z M 1.859375 0 "/></g></g></g></g></g></g></g><g clip-path="url(#64db7851e4)"><g transform="matrix(1, 0, 0, 1, 7, 8)"><g clip-path="url(#b2602ba54e)"><g clip-path="url(#7260bf1ea7)"><path fill="#1e1c1c" d="M 0.0507812 0.449219 L 1.550781 0.449219 L 1.550781 3.117188 L 0.0507812 3.117188 Z M 0.0507812 0.449219 " fill-opacity="1" fill-rule="nonzero"/></g></g></g></g><g clip-path="url(#0c2677eb34)"><g transform="matrix(1, 0, 0, 1, 21, 5)"><g clip-path="url(#c0ac77dc1b)"><g clip-path="url(#527b853541)"><path fill="#1e1c1c" d="M 0.199219 0.238281 L 2.554688 0.238281 L 2.554688 2.90625 L 0.199219 2.90625 Z M 0.199219 0.238281 " fill-opacity="1" fill-rule="nonzero"/></g></g></g></g><g clip-path="url(#64a84a3dda)"><g clip-path="url(#8f90335547)"><g transform="matrix(1, 0, 0, 1, 7, 8)"><g clip-path="url(#84946b904c)"><g clip-path="url(#d9e4bb2daf)"><g clip-path="url(#91930c5bc7)"><path fill="#7c8f6d" d="M 0.914062 0.449219 L 2.625 0.449219 L 2.625 2.898438 L 0.914062 2.898438 Z M 0.914062 0.449219 " fill-opacity="1" fill-rule="nonzero"/></g></g></g></g></g></g><g clip-path="url(#ee32b743df)"><g clip-path="url(#d173ac9bdc)"><g transform="matrix(1, 0, 0, 1, 22, 5)"><g clip-path="url(#aa1af3e587)"><g clip-path="url(#14b72eeb29)"><g clip-path="url(#ec17434f17)"><path fill="#7c8f6d" d="M 0.734375 0.464844 L 2.613281 0.464844 L 2.613281 2.914062 L 0.734375 2.914062 Z M 0.734375 0.464844 " fill-opacity="1" fill-rule="nonzero"/></g></g></g></g></g></g><g clip-path="url(#22697f61b2)"><g transform="matrix(1, 0, 0, 1, 7, 0.000000000000005329)"><g clip-path="url(#2355029154)"><g fill="#ffffff" fill-opacity="1"><g transform="translate(4.251915, 11.528917)"><g><path d="M 2.78125 -1.046875 C 2.3125 -0.847656 1.851562 -0.765625 1.40625 -0.796875 C 0.957031 -0.835938 0.554688 -0.992188 0.203125 -1.265625 C -0.140625 -1.535156 -0.410156 -1.898438 -0.609375 -2.359375 C -0.804688 -2.828125 -0.875 -3.273438 -0.8125 -3.703125 C -0.75 -4.140625 -0.578125 -4.53125 -0.296875 -4.875 C -0.0234375 -5.226562 0.347656 -5.503906 0.828125 -5.703125 C 1.335938 -5.921875 1.820312 -5.992188 2.28125 -5.921875 C 2.75 -5.859375 3.164062 -5.664062 3.53125 -5.34375 C 3.894531 -5.019531 4.179688 -4.585938 4.390625 -4.046875 L 0.828125 -2.546875 C 1.015625 -2.253906 1.242188 -2.070312 1.515625 -2 C 1.785156 -1.925781 2.070312 -1.953125 2.375 -2.078125 C 2.582031 -2.160156 2.757812 -2.28125 2.90625 -2.4375 C 3.050781 -2.601562 3.144531 -2.78125 3.1875 -2.96875 L 4.5 -3.515625 C 4.507812 -2.972656 4.363281 -2.484375 4.0625 -2.046875 C 3.757812 -1.609375 3.332031 -1.273438 2.78125 -1.046875 Z M 0.484375 -3.34375 L 2.796875 -4.3125 C 2.609375 -4.550781 2.378906 -4.707031 2.109375 -4.78125 C 1.847656 -4.851562 1.570312 -4.828125 1.28125 -4.703125 C 1 -4.578125 0.785156 -4.394531 0.640625 -4.15625 C 0.503906 -3.914062 0.453125 -3.644531 0.484375 -3.34375 Z M 0.484375 -3.34375 "/></g></g></g></g></g></g></g></g></svg>